<svg width="70" height="70" fill="none" xmlns="http://www.w3.org/2000/svg"><path fill="#F2F2F2" d="M0 0h70v70H0z"/><g clip-path="url(#clip0)"><path fill="#fff" d="M0 0h70v70H0z"/><g filter="url(#filter0_d)"><path fill-rule="evenodd" clip-rule="evenodd" d="M14.902 0C6.672 0 0 6.672 0 14.902v40.196C0 63.328 6.672 70 14.902 70h40.196C63.328 70 70 63.328 70 55.098V14.902C70 6.672 63.328 0 55.098 0H14.902z" fill="url(#paint0_linear)"/></g><path fill-rule="evenodd" clip-rule="evenodd" d="M40.382 32c-.892 0-1.337-1.08-.705-1.709l1.662-1.655A9.033 9.033 0 0 0 34.947 26c-4.601 0-8.397 3.424-8.963 7.852 0 0-.173 1.148-1.478 1.148a1.503 1.503 0 0 1-1.468-1.83C23.924 27.412 28.916 23 34.947 23a12.04 12.04 0 0 1 8.523 3.515l1.824-1.817c.631-.628 1.706-.18 1.706.709V31.5a.5.5 0 0 1-.5.5h-6.118zm-10.764 6c.892 0 1.337 1.08.705 1.709l-1.662 1.655A9.027 9.027 0 0 0 35.053 44c4.601 0 8.397-3.424 8.963-7.852 0 0 .173-1.148 1.478-1.148a1.503 1.503 0 0 1 1.468 1.83C46.076 42.588 41.084 47 35.053 47a12.043 12.043 0 0 1-8.523-3.514l-1.825 1.816c-.63.628-1.705.181-1.705-.709V38.5a.5.5 0 0 1 .5-.5h6.118z" fill="#fff"/></g><defs><filter id="filter0_d" x="-12" y="-6" width="94" height="94" filterUnits="userSpaceOnUse" color-interpolation-filters="sRGB"><feFlood flood-opacity="0" result="BackgroundImageFix"/><feColorMatrix in="SourceAlpha" values="0 0 0 0 0 0 0 0 0 0 0 0 0 0 0 0 0 0 127 0"/><feOffset dy="6"/><feGaussianBlur stdDeviation="6"/><feColorMatrix values="0 0 0 0 0.12549 0 0 0 0 0.129412 0 0 0 0 0.152941 0 0 0 0.08 0"/><feBlend in2="BackgroundImageFix" result="effect1_dropShadow"/><feBlend in="SourceGraphic" in2="effect1_dropShadow" result="shape"/></filter><linearGradient id="paint0_linear" x1="105" y1="35" x2="35" y2="-35" gradientUnits="userSpaceOnUse"><stop stop-color="#7956EC"/><stop offset="1" stop-color="#2FB9F8"/></linearGradient><clipPath id="clip0"><path fill="#fff" d="M0 0h70v70H0z"/></clipPath></defs></svg>