<svg width="88" height="15" xmlns="http://www.w3.org/2000/svg"><defs><linearGradient x1="0%" y1="48.546%" x2="100%" y2="51.454%" id="a"><stop stop-color="#FF8E64" offset="0%"/><stop stop-color="#FFE641" offset="100%"/></linearGradient></defs><path d="M210.686 159.004c-.215 0-.425-.066-.6-.19a.991.991 0 0 1-.383-1.068l1.164-4.243-3.488-2.762a.987.987 0 0 1-.33-1.085c.133-.396.496-.67.914-.689l4.485-.228 1.601-4.1a1.022 1.022 0 0 1 1.897 0l1.607 4.1 4.484.228c.417.02.78.293.914.69a.988.988 0 0 1-.329 1.084l-3.482 2.758 1.165 4.243a.99.99 0 0 1-.384 1.067 1.032 1.032 0 0 1-1.15.03l-3.767-2.4-3.766 2.4a1.023 1.023 0 0 1-.552.165zm-18 0c-.215 0-.425-.066-.6-.19a.991.991 0 0 1-.383-1.068l1.164-4.243-3.488-2.762a.987.987 0 0 1-.33-1.085c.133-.396.496-.67.914-.689l4.485-.228 1.601-4.1a1.022 1.022 0 0 1 1.897 0l1.607 4.1 4.484.228c.417.02.78.293.914.69a.988.988 0 0 1-.329 1.084l-3.482 2.758 1.165 4.243a.99.99 0 0 1-.384 1.067 1.032 1.032 0 0 1-1.15.03l-3.767-2.4-3.766 2.4a1.023 1.023 0 0 1-.552.165zm-18 0c-.215 0-.425-.066-.6-.19a.991.991 0 0 1-.383-1.068l1.164-4.243-3.488-2.762a.987.987 0 0 1-.33-1.085c.133-.396.496-.67.914-.689l4.485-.228 1.601-4.1a1.022 1.022 0 0 1 1.897 0l1.607 4.1 4.484.228c.417.02.78.293.914.69a.988.988 0 0 1-.329 1.084l-3.482 2.758 1.165 4.243a.99.99 0 0 1-.384 1.067 1.032 1.032 0 0 1-1.15.03l-3.767-2.4-3.766 2.4a1.023 1.023 0 0 1-.552.165zm-18 0c-.215 0-.425-.066-.6-.19a.991.991 0 0 1-.383-1.068l1.164-4.243-3.488-2.762a.987.987 0 0 1-.33-1.085c.133-.396.496-.67.914-.689l4.485-.228 1.601-4.1a1.022 1.022 0 0 1 1.897 0l1.607 4.1 4.484.228c.417.02.78.293.914.69a.988.988 0 0 1-.329 1.084l-3.482 2.758 1.165 4.243a.99.99 0 0 1-.384 1.067 1.032 1.032 0 0 1-1.15.03l-3.767-2.4-3.766 2.4a1.023 1.023 0 0 1-.552.165zm-18.6-.19a.991.991 0 0 1-.383-1.068l1.164-4.243-3.488-2.762a.987.987 0 0 1-.33-1.085c.133-.396.496-.67.914-.689l4.485-.228 1.601-4.1a1.022 1.022 0 0 1 1.897 0l1.607 4.1 4.484.228c.417.02.78.293.914.69a.988.988 0 0 1-.329 1.084l-3.482 2.758 1.165 4.243a.99.99 0 0 1-.384 1.067 1.032 1.032 0 0 1-1.15.03l-3.767-2.4-3.766 2.4a1.023 1.023 0 0 1-1.152-.026z" transform="translate(-135 -144)" fill="url(#a)" fill-rule="evenodd"/></svg>