<svg width="24" height="21" xmlns="http://www.w3.org/2000/svg"><defs><linearGradient x1="0%" y1="11.719%" x2="100%" y2="88.281%" id="a"><stop stop-color="#F23673" offset="0%"/><stop stop-color="#FFC066" offset="100%"/></linearGradient></defs><path d="M50.99 52H33.01A3 3 0 0 1 30 49.013V41.5a1.5 1.5 0 0 1 .077-.474l2.764-8.294A2.611 2.611 0 0 1 35.265 31h13.47a2.619 2.619 0 0 1 2.424 1.732l2.764 8.294A1.5 1.5 0 0 1 54 41.5v7.513A3 3 0 0 1 50.99 52zm-17.98-3h17.98c.011 0 .01 0 .01.013V43h-3.815a5.982 5.982 0 0 1-10.37 0H33v6.013C33 49 33 49 33.01 49zm15.408-15H35.582l-2.001 6h4.176c.18.003.36.04.528.106.051.022.101.047.15.075a1.452 1.452 0 0 1 .637.636c.027.045.051.091.074.138 0 .017.019.029.025.045a3 3 0 0 0 5.658 0c0-.016.018-.028.025-.045a1.83 1.83 0 0 1 .074-.138 1.51 1.51 0 0 1 .21-.31 1.24 1.24 0 0 1 .127-.123c.091-.08.192-.148.3-.203.05-.027.1-.052.15-.075.169-.067.347-.103.528-.106h4.176l-2-6z" transform="translate(-30 -31)" fill="url(#a)" fill-rule="evenodd"/></svg>