<svg width="24" height="24" xmlns="http://www.w3.org/2000/svg"><defs><linearGradient x1="0%" y1="0%" x2="100%" y2="100%" id="a"><stop stop-color="#7956EC" offset="0%"/><stop stop-color="#2FB9F8" offset="100%"/></linearGradient></defs><path d="M45.963 39c-.553 0-.69-.31-.294-.705l2.67-2.659A9.033 9.033 0 0 0 41.947 33c-4.601 0-8.397 3.424-8.963 7.852 0 0-.173 1.148-1.478 1.148a1.503 1.503 0 0 1-1.468-1.83C30.924 34.412 35.916 30 41.947 30a12.04 12.04 0 0 1 8.523 3.515l2.816-2.804c.394-.393.714-.265.714.287v7.492c0 .282-.223.51-.499.51h-7.538zm-7.926 6c.553 0 .69.31.294.705l-2.67 2.659A9.027 9.027 0 0 0 42.053 51c4.601 0 8.397-3.424 8.963-7.852 0 0 .173-1.148 1.478-1.148a1.503 1.503 0 0 1 1.468 1.83C53.076 49.588 48.084 54 42.053 54a12.043 12.043 0 0 1-8.523-3.514l-2.816 2.803c-.394.393-.714.265-.714-.287V45.51c0-.282.223-.51.499-.51h7.538z" transform="translate(-30 -30)" fill="url(#a)" fill-rule="evenodd"/></svg>