<svg width="70" height="70" viewBox="0 0 70 70" fill="none" xmlns="http://www.w3.org/2000/svg">
<rect width="70" height="70" fill="#F2F2F2"/>
<g clip-path="url(#clip0)">
<g filter="url(#filter0_d)">
<path fill-rule="evenodd" clip-rule="evenodd" d="M14.9023 0C6.67219 0 0 6.67227 0 14.9023V55.0977C0 63.3278 6.67227 70 14.9023 70H55.0977C63.3278 70 70 63.3277 70 55.0977V14.9023C70 6.67219 63.3277 0 55.0977 0H14.9023Z" fill="url(#paint0_linear)"/>
</g>
<path fill-rule="evenodd" clip-rule="evenodd" d="M46.9235 42.9725C46.719 43.5891 46.141 44.0038 45.4916 44H37.9944C37.9944 45.6569 36.6518 47 34.9956 47C33.3393 47 31.9967 45.6569 31.9967 44H24.4995C23.8541 44 23.2811 43.5869 23.077 42.9743C22.8729 42.3618 23.0835 41.6874 23.5999 41.3C25.1158 40.1706 26.0087 38.3908 26.008 36.5V32C26.008 27.0294 30.0359 23 35.0046 23C39.9732 23 44.0011 27.0294 44.0011 32V36.5C43.9959 38.3898 44.8859 40.1703 46.4002 41.3C46.9159 41.687 47.1266 42.3604 46.9235 42.9725V42.9725ZM41.2497 36.5075V32.0075C41.1222 28.6485 38.3632 25.9912 35.0031 25.9912C31.6429 25.9912 28.8839 28.6485 28.7564 32.0075V36.5075C28.7562 38.0931 28.3244 39.6487 27.5074 41.0075H42.5017C41.6831 39.6493 41.2502 38.0935 41.2497 36.5075V36.5075Z" fill="white"/>
</g>
<defs>
<filter id="filter0_d" x="-12" y="-6" width="94" height="94" filterUnits="userSpaceOnUse" color-interpolation-filters="sRGB">
<feFlood flood-opacity="0" result="BackgroundImageFix"/>
<feColorMatrix in="SourceAlpha" type="matrix" values="0 0 0 0 0 0 0 0 0 0 0 0 0 0 0 0 0 0 127 0"/>
<feOffset dy="6"/>
<feGaussianBlur stdDeviation="6"/>
<feColorMatrix type="matrix" values="0 0 0 0 0.12549 0 0 0 0 0.129412 0 0 0 0 0.152941 0 0 0 0.08 0"/>
<feBlend mode="normal" in2="BackgroundImageFix" result="effect1_dropShadow"/>
<feBlend mode="normal" in="SourceGraphic" in2="effect1_dropShadow" result="shape"/>
</filter>
<linearGradient id="paint0_linear" x1="-35" y1="35" x2="35" y2="105" gradientUnits="userSpaceOnUse">
<stop stop-color="#AD2AB9"/>
<stop offset="1" stop-color="#FF618C"/>
</linearGradient>
<clipPath id="clip0">
<rect width="70" height="70" fill="white"/>
</clipPath>
</defs>
</svg>
