<?xml version="1.0" encoding="UTF-8"?>
<svg width="16px" height="13px" viewBox="0 0 16 13" version="1.1" xmlns="http://www.w3.org/2000/svg" xmlns:xlink="http://www.w3.org/1999/xlink">
    <!-- Generator: Sketch 53.2 (72643) - https://sketchapp.com -->
    <title>Twitter Icon</title>
    <desc>Created with Sketch.</desc>
    <g id="Sample" stroke="none" stroke-width="1" fill="none" fill-rule="evenodd">
        <g id="Tablet" transform="translate(-1159.000000, -5577.000000)" fill="#D3D5D9">
            <g id="Testimonials-#1" transform="translate(0.000000, 4920.000000)">
                <g id="Reviews" transform="translate(535.000000, 0.000000)">
                    <g id="Review" transform="translate(100.000000, 520.000000)">
                        <path d="M538.370982,140.657671 C538.370982,144.997501 535.069585,150 529.031812,150 C527.24242,149.999056 525.492728,149.486242 524,148.525237 C524.259847,148.553566 524.521027,148.568745 524.782489,148.570715 C526.267472,148.570741 527.707203,148.07292 528.859704,147.16092 C527.440325,147.126877 526.203337,146.210252 525.791119,144.887056 C525.994997,144.926308 526.20235,144.945893 526.410173,144.945527 C526.703457,144.94654 526.995415,144.90717 527.277382,144.828586 C525.72728,144.500587 524.626797,143.15749 524.642402,141.612694 C525.098337,141.822699 525.608349,141.96296 526.130665,141.983008 C524.683352,140.993912 524.243704,139.096225 525.114697,137.597701 C526.756766,139.637424 529.222802,140.887757 531.880258,141.027986 C531.823696,140.782768 531.795281,140.532189 531.795539,140.28086 C531.771806,138.492046 533.241512,137.023173 535.078257,137 C535.990303,137.000416 536.859858,137.375489 537.473087,138.032984 C538.21112,137.891176 538.917418,137.622805 539.559058,137.24038 C539.318895,137.99515 538.805429,138.639281 538.114155,139.052974 C538.766049,138.976961 539.402083,138.803861 540,138.53973 C539.561671,139.194851 539.007396,139.768977 538.362977,140.235382 C538.368981,140.378311 538.370982,140.521239 538.370982,140.657671 Z" id="Twitter-Icon"></path>
                    </g>
                </g>
            </g>
        </g>
    </g>
</svg>