<?xml version="1.0" encoding="UTF-8"?>
<svg width="24px" height="24px" viewBox="0 0 24 24" version="1.1" xmlns="http://www.w3.org/2000/svg" xmlns:xlink="http://www.w3.org/1999/xlink">
    <!-- Generator: Sketch 53.2 (72643) - https://sketchapp.com -->
    <title>Clock Icon</title>
    <desc>Created with Sketch.</desc>
    <defs>
        <linearGradient x1="0%" y1="0%" x2="100%" y2="100%" id="linearGradient-1">
            <stop stop-color="#009FC5" offset="0%"></stop>
            <stop stop-color="#3CECB0" offset="100%"></stop>
        </linearGradient>
    </defs>
    <g id="Sample" stroke="none" stroke-width="1" fill="none" fill-rule="evenodd">
        <g id="Tablet" transform="translate(-165.000000, -2335.000000)" fill="url(#linearGradient-1)">
            <g id="Highlights-#7" transform="translate(0.000000, 1750.000000)">
                <g id="Tabs" transform="translate(135.000000, 235.000000)">
                    <g id="Feature" transform="translate(0.000000, 320.000000)">
                        <path d="M42,54 C35.372583,54 30,48.627417 30,42 C30,35.372583 35.372583,30 42,30 C48.627417,30 54,35.372583 54,42 C54,48.627417 48.627417,54 42,54 L42,54 L42,54 L42,54 Z M42,33 C37.0294373,33 33,37.0294373 33,42 C33,46.9705627 37.0294373,51 42,51 C46.9705627,51 51,46.9705627 51,42 C51,37.0294373 46.9705627,33 42,33 L42,33 L42,33 L42,33 Z M48,43.5 L42,43.5 C41.1768164,43.5000333 40.5074087,42.8366502 40.5,42.0135 L40.5,35.9865 C40.5,35.1580729 41.1715729,34.4865 42,34.4865 C42.8284271,34.4865 43.5,35.1580729 43.5,35.9865 L43.5,40.5 L48,40.5 C48.8284271,40.5 49.5,41.1715729 49.5,42 C49.5,42.8284271 48.8284271,43.5 48,43.5 L48,43.5 L48,43.5 L48,43.5 Z" id="Clock-Icon"></path>
                    </g>
                </g>
            </g>
        </g>
    </g>
</svg>