<svg width="70" height="70" fill="none" xmlns="http://www.w3.org/2000/svg"><path fill="#F2F2F2" d="M0 0h70v70H0z"/><g clip-path="url(#clip0)"><g filter="url(#filter0_d)"><path fill-rule="evenodd" clip-rule="evenodd" d="M14.902 0C6.672 0 0 6.672 0 14.902v40.196C0 63.328 6.672 70 14.902 70h40.196C63.328 70 70 63.328 70 55.098V14.902C70 6.672 63.328 0 55.098 0H14.902z" fill="url(#paint0_linear)"/></g><path fill-rule="evenodd" clip-rule="evenodd" d="M46.923 42.972A1.5 1.5 0 0 1 45.492 44h-7.498a3 3 0 1 1-5.997 0H24.5a1.5 1.5 0 0 1-.9-2.7 5.983 5.983 0 0 0 2.408-4.8V32c0-4.97 4.028-9 8.997-9C39.973 23 44 27.03 44 32v4.5a5.968 5.968 0 0 0 2.4 4.8 1.5 1.5 0 0 1 .522 1.672zm-5.673-6.465v-4.5a6.252 6.252 0 0 0-12.494 0v4.5a8.735 8.735 0 0 1-1.249 4.5h14.995a8.723 8.723 0 0 1-1.252-4.5z" fill="#fff"/></g><defs><filter id="filter0_d" x="-12" y="-6" width="94" height="94" filterUnits="userSpaceOnUse" color-interpolation-filters="sRGB"><feFlood flood-opacity="0" result="BackgroundImageFix"/><feColorMatrix in="SourceAlpha" values="0 0 0 0 0 0 0 0 0 0 0 0 0 0 0 0 0 0 127 0"/><feOffset dy="6"/><feGaussianBlur stdDeviation="6"/><feColorMatrix values="0 0 0 0 0.12549 0 0 0 0 0.129412 0 0 0 0 0.152941 0 0 0 0.08 0"/><feBlend in2="BackgroundImageFix" result="effect1_dropShadow"/><feBlend in="SourceGraphic" in2="effect1_dropShadow" result="shape"/></filter><linearGradient id="paint0_linear" x1="-35" y1="35" x2="35" y2="105" gradientUnits="userSpaceOnUse"><stop stop-color="#AD2AB9"/><stop offset="1" stop-color="#FF618C"/></linearGradient><clipPath id="clip0"><path fill="#fff" d="M0 0h70v70H0z"/></clipPath></defs></svg>