<svg width="70" height="70" fill="none" xmlns="http://www.w3.org/2000/svg"><path fill="#F2F2F2" d="M0 0h70v70H0z"/><g clip-path="url(#clip0)"><path fill="#fff" d="M0 0h70v70H0z"/><g filter="url(#filter0_d)"><path fill-rule="evenodd" clip-rule="evenodd" d="M14.902 0C6.672 0 0 6.672 0 14.902v40.196C0 63.328 6.672 70 14.902 70h40.196C63.328 70 70 63.328 70 55.098V14.902C70 6.672 63.328 0 55.098 0H14.902z" fill="url(#paint0_linear)"/></g><path fill-rule="evenodd" clip-rule="evenodd" d="M43.99 45H26.01A3 3 0 0 1 23 42.014V34.5a1.5 1.5 0 0 1 .076-.474l2.765-8.294A2.611 2.611 0 0 1 28.265 24h13.47a2.62 2.62 0 0 1 2.424 1.733l2.764 8.293A1.5 1.5 0 0 1 47 34.5v7.514A3 3 0 0 1 43.99 45zm-17.98-3h17.98c.011 0 .01 0 .01.014V36h-3.815a5.982 5.982 0 0 1-10.37 0H26v6.014C26 42 26 42 26.01 42zm15.41-15H28.582l-2.002 6h4.177c.18.003.36.04.527.106.052.022.102.047.15.075a1.4 1.4 0 0 1 .3.203c.046.038.088.079.128.123.083.094.153.199.21.31.027.045.051.091.073.139 0 .016.02.028.026.044a3 3 0 0 0 5.658 0c0-.016.018-.028.026-.044.022-.048.046-.094.073-.139a1.51 1.51 0 0 1 .21-.31 1.24 1.24 0 0 1 .128-.123 1.4 1.4 0 0 1 .3-.203c.048-.027.098-.052.15-.075.167-.067.346-.103.527-.106h4.176l-2-6z" fill="#fff"/></g><defs><filter id="filter0_d" x="-12" y="-6" width="94" height="94" filterUnits="userSpaceOnUse" color-interpolation-filters="sRGB"><feFlood flood-opacity="0" result="BackgroundImageFix"/><feColorMatrix in="SourceAlpha" values="0 0 0 0 0 0 0 0 0 0 0 0 0 0 0 0 0 0 127 0"/><feOffset dy="6"/><feGaussianBlur stdDeviation="6"/><feColorMatrix values="0 0 0 0 0.12549 0 0 0 0 0.129412 0 0 0 0 0.152941 0 0 0 0.08 0"/><feBlend in2="BackgroundImageFix" result="effect1_dropShadow"/><feBlend in="SourceGraphic" in2="effect1_dropShadow" result="shape"/></filter><linearGradient id="paint0_linear" x1="-35" y1="35" x2="35" y2="105" gradientUnits="userSpaceOnUse"><stop stop-color="#FF8E64"/><stop offset="1" stop-color="#FFE641"/></linearGradient><clipPath id="clip0"><path fill="#fff" d="M0 0h70v70H0z"/></clipPath></defs></svg>