<svg width="16" height="13" xmlns="http://www.w3.org/2000/svg"><path d="M14.371 3.658c0 4.34-3.301 9.342-9.34 9.342A9.31 9.31 0 0 1 0 11.525a6.574 6.574 0 0 0 4.86-1.364c-1.42-.034-2.657-.95-3.069-2.274.204.04.411.059.62.059a3.19 3.19 0 0 0 .866-.117C1.727 7.5.627 6.157.642 4.613c.456.21.966.35 1.489.37C.683 3.993.244 2.096 1.115.598c1.642 2.04 4.108 3.29 6.765 3.43a3.309 3.309 0 0 1-.084-.747C7.772 1.492 9.242.023 11.078 0c.912 0 1.782.375 2.395 1.033A6.453 6.453 0 0 0 15.56.24a3.274 3.274 0 0 1-1.445 1.813A6.543 6.543 0 0 0 16 1.54a6.681 6.681 0 0 1-1.637 1.695c.006.143.008.286.008.423z" fill="#D3D5D9" fill-rule="evenodd"/></svg>