<svg width="24" height="24" xmlns="http://www.w3.org/2000/svg"><defs><linearGradient x1="0%" y1="0%" x2="100%" y2="100%" id="a"><stop stop-color="#009FC5" offset="0%"/><stop stop-color="#3CECB0" offset="100%"/></linearGradient></defs><path d="M42 54c-6.627 0-12-5.373-12-12s5.373-12 12-12 12 5.373 12 12-5.373 12-12 12zm0-21a9 9 0 1 0 0 18 9 9 0 0 0 0-18zm6 10.5h-6a1.5 1.5 0 0 1-1.5-1.486v-6.028a1.5 1.5 0 0 1 3 0V40.5H48a1.5 1.5 0 0 1 0 3z" transform="translate(-30 -30)" fill="url(#a)" fill-rule="evenodd"/></svg>